<svg xmlns="http://www.w3.org/2000/svg" viewBox="0 0 100 100" enable-background="new 0 0 100 100"><circle fill="#171617" cx="50" cy="50" r="50"/><g fill="#C95728"><path d="M31.5 63.2c-.3-2.4-1.6-3.8-2.3-5.5-.2-.5-.4-1.2-.4-2.1 0-1.2.6-2.9 2-3 1.3-.1 1.2 1.6.8 2.6-.2.5-.6.9-.6 1.2 2.8.6 4.8-3 3.1-4.7-.8-.9-2.7-.9-4-.6-3.1.7-5.4 3.1-5.5 6.1-.1 3.1 2.2 5.4 2.5 8.2.3 1.9-.1 3.7-1.1 5-1.3 1.7-4.2 1.7-5 .1-1.5-2.9 1.2-5.5 3.9-5.8-.6-.9-2.2-.9-3.5-.7-2.3.4-4.7 2.3-4.4 5.4.3 2.7 3 4 5.6 4 5.7-.1 9.5-4.5 8.9-10.2zM78.6 33.4c1.3-1.4 3-3.5 3.2-5.4.4-4.4-5.3-2.3-4.4.8 1.2-1.5 2.9.4 1.2 4.6zM85.3 31c-1.6-.5-2.8.3-3.3.9-2 2.6 1.8 5.8.7 8.4-.4.9-2.6 2.2-3.2.6.5-.2 1.3-.6 1.7-1.3.5-.8.9-2.4 0-3-2.8-1.2-4.6 4.6-2.5 6.5.7.7 1.6.9 2.8.8 2.6-.1 5.3-2.2 5.4-5.4.1-3.2-2.4-4.6-1.6-7.5zM76.8 40.8c-1 2-2.5 2.5-2.5 1.3.2-1.6 2.2-8.2 2.7-9.9l-3.4.4c-.3.2-.2.7-.4.9-.4-1.3-2-1.2-3.3-.5-1.9 1-3.9 3.7-4.7 5.6-.8 2-2.1 5.4-3.2 5.4s-.1-2.2.4-3.4c.7-1.7 2.7-6 .2-6.6-2.1-.5-3.8 1.6-4.8 2.8-.2-.7-.3-1.3-.8-1.5-1.7-1-4.3 1.6-5 2.4.2-.5.3-1 .4-1.5-1.2.2-2.4.5-3.7.7-.5 2-1.1 4-1.7 6-.3.9-1.3 4.2-2.6 4.2-1 0 1.6-7.6 2.3-10l-3.5.7-.5 1c-.1-1-1-1.2-2.1-.9-1.8.5-3.3 2.1-4.5 3.8-1.2 1.8-2.1 3.9-2.1 5.8-.1 1.9.5 3.4 1.7 3.7 2.2.6 4.1-2 4.7-3.3.1 1.1.5 1.8 1 2 1.8.9 3.8-1.2 4.2-1.8l-.4 1.4 4-.8c.4-1.7.9-3.7 1.5-5.5.5-1.7 1.4-4.5 2.7-4.7.4-.1 0 1.7-.2 2.4-.7 2.5-1.4 4.9-2.2 7.5l3.9-.8c.5-1.3.8-2.8 1.2-4.3.4-1.5.8-3.2 1.3-4.3.3-.6.9-1.5 1.7-1.5.9 0-2 5.1-1.7 7.8.2 1.3 1.4 2 2.7 1.8 2.4-.4 3.8-2.6 4.3-3.4.4 3.9 5.3 1.7 6.3-.9.2 1.5 1 2.3 2.4 2.2 3.3-.4 4.1-4.1 3.7-4.2zm-36.2 3.7c-.5 1.4-1.8 3.9-2.4 3.8-.6-.1-.4-1.3-.2-2.2.4-1.9 1.5-5.5 3-6.2 1.2-.6.1 3.1-.4 4.6zm28-1.6c-1.4.3.5-5.1 1.6-6.7.7-1 1.3-1.7 1.8-1.7.8.4-1.9 8-3.4 8.4zM78.6 48c-.6.3-1.2 1.5-1.7 2.8l-.1.3-.1.3c-.5 1.3-1.3 2.9-2.4 3.9-1.4 1.3-3.9 1.8-3.7-1.1 2.1-1 4.9-3 5.2-5.5.2-1.9-.9-2.8-2.6-2.6-1.9.2-3.4 1.7-4.5 3.1-1.2 1.6-1.8 3.4-1.9 5.4-.3.4-.7 1.1-1.2 1.6-.8.9-1.7 1.7-3 1.6-.6 0-1-.6-1.1-1.2-.2-1.4.4-3.1 1-4.5s1.2-2.8 2.3-3.4c-1 .8-1.6 3.4.1 3.3 2.3-.1 2.4-4.3.7-4.9-.4-.2-1.1-.1-1.5 0-2 .4-3.5 2-4.6 3.5-1.2 1.7-1.8 4.5-2 5.8-.1.2-1.1 2.3-2.2 2.2-.9 0 1.6-7.6 2.3-10-1.3.2-2.6.5-3.9.8-.7 2.6-3.1 10.4-4.2 10.5-1.1.1 1.7-7.5 2.5-10l-3.9.8c-.8 2.9-1.5 6-2.8 8.3-.5.8-1.5 2.3-2.1 2.2-.8 0 1.5-7.6 2.3-10l-3.5.7-.5 1c-.1-1-1-1.2-2.1-.9-1.8.5-3.3 2.1-4.5 3.8-1.2 1.8-2.1 3.9-2.1 5.8-.1 1.9.5 3.4 1.7 3.7 2.2.6 4.1-2 4.7-3.3.1 1.1.5 1.8 1 2 2.4 1.1 4.7-2.4 5.5-3.3.1 1.4.9 2.2 2 2.1 1.9-.2 3.3-2.1 3.9-3.4.1.8.3 1.4.6 1.8 1.7 1.6 5.1-1.5 5.8-3 .4.9 1 1.6 1.8 1.8 2.3.8 4.7-1 4.7-1 1-.6 2.5-2.5 2.7-2.7.5 1.6 1.7 2.4 3.3 2.3 4.3-.2 6.6-4.6 7.5-7.7.1-.3.3-.5.4-.6 1-.7.6 1.8.4 2.2-1.4 3.9-2.6 6.7-13.2 8.5-6 1-15.5 2.7-18.5 3.3-5.9 1-10.2 2-12.7 3.5-3.8 2.2-4.2 5.1-3 8.5.1-3.4 4.4-5.1 12.6-6.5 7.3-1.2 21.4-3.7 21.8-3.8 11.4-1.9 13.6-9.4 14.6-14.4.3-2.5-.6-4.1-1.8-3.6zm-6.1.3c.4-.4 1-.9 1.6-.4.2.2.1.8 0 1.1-.4.9-1.5 2.3-3.2 3.5-.1-1.1.8-3.3 1.6-4.2zm-33 10.4c-.5 1.4-1.8 4-2.4 3.8-.6-.2-.4-1.3-.2-2.2.4-1.9 1.6-5.3 3-6.2 1.2-.9 0 3.1-.4 4.6zM75.6 21.2c-.1 3.4-4.4 5.1-12.6 6.5-2.4.4-22.4 3.9-22.5 3.9-9 1.6-9 1.7-9.8 4.1-1.3 2.8-3.8 8-5.2 11.4.1-6.4 1.9-13.3-5.3-11.6-3.9.9-8.2 5.5-7.8 9.9 0 .5.3 1.6.9 2.1 1.7 1.3 4-.8 4.2-2.7-.5.2-1.1.1-1.3-.3-1-1.3.9-5.2 2.2-6.4.4-.4 1.2-.9 1.6-.9.6.3.5 1.1.5 2.1.2 4.4-3.2 14.8-5.7 16.5-2.1 1.5-4.1.6-3.7-2.2-3.7 4.9-.6 8 3 7.1 5.4-1.3 6.8-14.1 7.8-17.9-.2 4.6-.6 7.8-.8 12l2.5-.3c2.7-5.3 4.8-9.7 7.2-14.3-.6 2.3-2.4 6.5-3.5 10.5.8-.4 1.6-.8 2.5-1 .5-.1 1.1-.2 1.7-.2h.7c.1-3 1.8-8.1 3.3-12.1 1.4-.4 3-.8 5-1.1 1.7-.3 18.5-3.2 18.5-3.2.3 0 .5-.1.7-.1 5.9-1 10.2-2 12.7-3.5 4-2 4.4-4.9 3.2-8.3z"/></g></svg>